<svg width="32" height="25" viewBox="0 0 32 25" fill="none" xmlns="http://www.w3.org/2000/svg">
<rect y="0.5" width="32" height="24" rx="4" fill="#F6F6FA"/>
<path fill-rule="evenodd" clip-rule="evenodd" d="M16.471 10.6782C16.4532 12.0858 17.7256 12.8713 18.684 13.3384C19.6688 13.8176 19.9995 14.1249 19.9958 14.5534C19.9883 15.2093 19.2102 15.4987 18.482 15.51C17.2115 15.5297 16.4729 15.167 15.8856 14.8926L15.428 17.0341C16.0172 17.3057 17.1081 17.5425 18.2395 17.5528C20.8951 17.5528 22.6324 16.242 22.6419 14.2095C22.6522 11.6301 19.074 11.4873 19.0984 10.3343C19.1068 9.98472 19.4404 9.61163 20.1715 9.51674C20.5332 9.46886 21.5321 9.43217 22.6644 9.95366L23.1089 7.88176C22.5 7.65997 21.7172 7.44757 20.7428 7.44757C18.2433 7.44757 16.4852 8.77627 16.471 10.6782ZM27.3797 7.6261C26.8948 7.6261 26.4861 7.90899 26.3038 8.3431L22.5103 17.4006H25.164L25.692 15.9412H28.9348L29.2412 17.4006H31.58L29.539 7.6261H27.3797ZM27.7509 10.2666L28.5167 13.9369H26.4193L27.7509 10.2666ZM13.2536 7.6261L11.1619 17.4006H13.6906L15.7813 7.6261H13.2536ZM9.51281 7.6261L6.88076 14.279L5.8161 8.62215C5.69116 7.99074 5.19783 7.6261 4.64997 7.6261H0.34727L0.287109 7.90992C1.17043 8.10159 2.17399 8.41077 2.78194 8.74153C3.15401 8.94353 3.26025 9.12018 3.38237 9.60037L5.39888 17.4006H8.07138L12.1683 7.6261H9.51281Z" fill="#1434CB"/>
</svg>
